<svg width="105" height="105" viewBox="0 0 105 105" fill="none" xmlns="http://www.w3.org/2000/svg">
<g id="Group 36">
<circle id="Ellipse 3" cx="52.5" cy="52.5" r="36.5" transform="rotate(-45 52.5 52.5)" fill="white"/>
<path id="Arrow 1" d="M41.4558 61.4837C40.4795 62.46 40.4795 64.0429 41.4558 65.0192C42.4321 65.9955 44.015 65.9955 44.9913 65.0192L41.4558 61.4837ZM67.2265 41.7485C67.2265 40.3678 66.1072 39.2485 64.7265 39.2485H42.2265C40.8458 39.2485 39.7265 40.3678 39.7265 41.7485C39.7265 43.1292 40.8458 44.2485 42.2265 44.2485H62.2265V64.2485C62.2265 65.6292 63.3458 66.7485 64.7265 66.7485C66.1072 66.7485 67.2265 65.6292 67.2265 64.2485V41.7485ZM44.9913 65.0192L66.4943 43.5163L62.9587 39.9808L41.4558 61.4837L44.9913 65.0192Z" fill="black"/>
</g>
</svg>
